<mxfile host="app.diagrams.net" modified="2023-04-05T20:10:49.670Z" agent="Mozilla/5.0 (Windows NT 10.0; Win64; x64) AppleWebKit/537.36 (KHTML, like Gecko) Chrome/110.0.0.0 YaBrowser/23.3.0.2246 Yowser/2.5 Safari/537.36" etag="yxgfQhTU-geZGCnGH59Z" version="21.1.2" type="github">
  <diagram id="DeOqfH__FXBIrMnOBVjb" name="Страница 1">
    <mxGraphModel dx="1626" dy="767" grid="1" gridSize="10" guides="1" tooltips="1" connect="1" arrows="1" fold="1" page="1" pageScale="1" pageWidth="827" pageHeight="1169" math="0" shadow="0">
      <root>
        <mxCell id="0" />
        <mxCell id="1" parent="0" />
        <mxCell id="RV7DL-x7Y8xYj8IAAxq2-1" value="Actor" style="shape=umlActor;verticalLabelPosition=bottom;verticalAlign=top;html=1;outlineConnect=0;" vertex="1" parent="1">
          <mxGeometry x="65" y="430" width="30" height="60" as="geometry" />
        </mxCell>
        <mxCell id="RV7DL-x7Y8xYj8IAAxq2-14" style="edgeStyle=orthogonalEdgeStyle;rounded=0;orthogonalLoop=1;jettySize=auto;html=1;exitX=0.5;exitY=0;exitDx=0;exitDy=0;entryX=0;entryY=0.5;entryDx=0;entryDy=0;" edge="1" parent="1" source="RV7DL-x7Y8xYj8IAAxq2-2" target="RV7DL-x7Y8xYj8IAAxq2-3">
          <mxGeometry relative="1" as="geometry" />
        </mxCell>
        <mxCell id="RV7DL-x7Y8xYj8IAAxq2-2" value="JupyterLab:&lt;br&gt;Code in Jupyter notebooks" style="rounded=1;whiteSpace=wrap;html=1;" vertex="1" parent="1">
          <mxGeometry x="20" y="280" width="120" height="120" as="geometry" />
        </mxCell>
        <mxCell id="RV7DL-x7Y8xYj8IAAxq2-3" value="GitHub Repo" style="rounded=1;whiteSpace=wrap;html=1;" vertex="1" parent="1">
          <mxGeometry x="280" y="80" width="160" height="180" as="geometry" />
        </mxCell>
        <mxCell id="RV7DL-x7Y8xYj8IAAxq2-5" value="PyCharm Projects" style="rounded=1;whiteSpace=wrap;html=1;" vertex="1" parent="1">
          <mxGeometry x="160" y="400" width="120" height="120" as="geometry" />
        </mxCell>
        <mxCell id="RV7DL-x7Y8xYj8IAAxq2-10" value="Actor" style="shape=umlActor;verticalLabelPosition=bottom;verticalAlign=top;html=1;outlineConnect=0;" vertex="1" parent="1">
          <mxGeometry x="605" y="440" width="30" height="60" as="geometry" />
        </mxCell>
        <mxCell id="RV7DL-x7Y8xYj8IAAxq2-11" value="PyCharm Projects" style="rounded=1;whiteSpace=wrap;html=1;" vertex="1" parent="1">
          <mxGeometry x="440" y="400" width="120" height="120" as="geometry" />
        </mxCell>
        <mxCell id="RV7DL-x7Y8xYj8IAAxq2-12" value="JupyterLab:&lt;br&gt;Code in Jupyter notebooks" style="rounded=1;whiteSpace=wrap;html=1;" vertex="1" parent="1">
          <mxGeometry x="560" y="280" width="120" height="120" as="geometry" />
        </mxCell>
        <mxCell id="RV7DL-x7Y8xYj8IAAxq2-15" value="Text" style="text;html=1;strokeColor=none;fillColor=none;align=center;verticalAlign=middle;whiteSpace=wrap;rounded=0;" vertex="1" parent="1">
          <mxGeometry x="95" y="190" width="60" height="30" as="geometry" />
        </mxCell>
      </root>
    </mxGraphModel>
  </diagram>
</mxfile>
